<svg width="26" height="25" viewBox="0 0 26 25" fill="none" xmlns="http://www.w3.org/2000/svg">
<g filter="url(#filter0_d)">
<path d="M12.6364 0C7.88976 0 4 3.81066 4 8.42074C4 13.0041 7.85431 16.776 12.6364 16.776C17.4125 16.776 21.2727 13.0097 21.2727 8.42074C21.2727 3.81066 17.3829 0 12.6364 0ZM14.1545 15.6455C13.6687 15.7438 13.1525 15.793 12.6364 15.793C12.1202 15.793 11.604 15.7438 11.1182 15.6455V13.3454C11.1182 12.7949 11.2701 12.5984 11.4725 12.3329C11.5755 12.2185 11.6377 12.1158 12.0999 11.4385L11.3207 11.3205C9.31668 11.0355 8.52731 10.0229 8.21354 9.23656C7.80871 8.18486 8.02128 6.86758 8.75002 6.03219C8.86137 5.90433 8.95243 5.68802 8.87152 5.46199C8.71958 5.0098 8.73987 4.29229 8.84108 4.01698C9.37769 4.09147 9.92945 4.46482 10.3896 4.73462C10.6017 4.8548 10.7129 4.82306 10.8146 4.83292C11.1844 4.75817 11.7612 4.57732 12.6465 4.57732C13.193 4.57732 13.7699 4.65591 14.3367 4.81321C14.4381 4.8109 14.6009 4.89461 14.8832 4.73462C15.3642 4.44997 15.8973 4.08942 16.4316 4.01698C16.5328 4.29229 16.5531 5.0098 16.4013 5.46199C16.3203 5.68802 16.4113 5.90433 16.5228 6.03219C17.2514 6.86771 17.464 8.18486 17.0592 9.23656C16.7454 10.0229 15.956 11.0355 13.952 11.3205L13.1728 11.4385C13.6505 12.1386 13.7009 12.2226 13.8004 12.3329C14.0027 12.5984 14.1545 12.7949 14.1545 13.3454V15.6455ZM15.1665 15.3605V13.3454C15.1665 12.7851 15.045 12.4116 14.8831 12.1363C16.4215 11.7334 17.5146 10.8486 18.0003 9.58059C18.5165 8.24386 18.2838 6.65141 17.4234 5.55043C17.5753 4.89192 17.5753 3.8401 17.211 3.34861C17.049 3.13244 16.8263 3.01443 16.543 3.01443C16.5328 3.01443 16.5328 3.01443 16.5328 3.01443C15.7481 3.05564 15.1304 3.43949 14.4682 3.83024C13.861 3.67294 13.2436 3.59435 12.6262 3.59435C11.9988 3.59435 11.3713 3.6828 10.8148 3.83024C10.1176 3.42195 9.50591 3.05462 8.69942 3.01443C8.4464 3.01443 8.22369 3.13244 8.06173 3.34861C7.69749 3.8401 7.69749 4.89192 7.8493 5.55043C6.98891 6.65141 6.75618 8.25359 7.27237 9.58059C7.75811 10.8486 8.85123 11.7334 10.3896 12.1363C10.264 12.3497 10.1647 12.625 10.1255 12.9976C9.81481 13.1016 9.54531 13.1355 9.29467 13.064C9.03032 12.9881 8.82434 12.8167 8.64539 12.5244C8.24346 11.8686 7.55886 11.3332 6.77938 11.4028L6.86833 12.3819C7.22928 12.3498 7.58851 12.7207 7.77511 13.0265C8.08295 13.53 8.49766 13.8602 9.00805 14.0066C9.38691 14.115 9.73323 14.1125 10.1062 14.0352V15.3605C7.16101 14.3578 5.01207 11.6252 5.01207 8.42074C5.01207 4.35129 8.4464 0.982966 12.6364 0.982966C16.8263 0.982966 20.2606 4.35129 20.2606 8.42074C20.2606 11.6252 18.1117 14.3578 15.1665 15.3605Z" fill="white"/>
</g>
<defs>
<filter id="filter0_d" x="0" y="0" width="25.2727" height="24.776" filterUnits="userSpaceOnUse" color-interpolation-filters="sRGB">
<feFlood flood-opacity="0" result="BackgroundImageFix"/>
<feColorMatrix in="SourceAlpha" type="matrix" values="0 0 0 0 0 0 0 0 0 0 0 0 0 0 0 0 0 0 127 0"/>
<feOffset dy="4"/>
<feGaussianBlur stdDeviation="2"/>
<feColorMatrix type="matrix" values="0 0 0 0 0 0 0 0 0 0 0 0 0 0 0 0 0 0 0.25 0"/>
<feBlend mode="normal" in2="BackgroundImageFix" result="effect1_dropShadow"/>
<feBlend mode="normal" in="SourceGraphic" in2="effect1_dropShadow" result="shape"/>
</filter>
</defs>
</svg>
