<svg width="26" height="25" viewBox="0 0 26 25" fill="none" xmlns="http://www.w3.org/2000/svg">
<g filter="url(#filter0_d)">
<path d="M6.53018 16.8944H18.7425C20.1377 16.8944 21.2727 15.792 21.2727 14.4369V2.57582C21.2727 1.22079 20.1377 0.118408 18.7425 0.118408H6.53018C5.13502 0.118408 4 1.22079 4 2.57582V14.4369C4 15.792 5.13502 16.8944 6.53018 16.8944ZM5.01207 2.57582C5.01207 1.76283 5.69311 1.10137 6.53018 1.10137H18.7425C19.5796 1.10137 20.2606 1.76283 20.2606 2.57582V14.4369C20.2606 15.2499 19.5796 15.9114 18.7425 15.9114H6.53018C5.69311 15.9114 5.01207 15.2499 5.01207 14.4369V2.57582Z" fill="white"/>
<path d="M12.6364 12.9297C15.1476 12.9297 17.1907 10.9453 17.1907 8.50636C17.1907 6.06737 15.1476 4.08301 12.6364 4.08301C10.1252 4.08301 8.08203 6.06737 8.08203 8.50636C8.08203 10.9453 10.1252 12.9297 12.6364 12.9297ZM12.6364 5.06597C14.5896 5.06597 16.1786 6.60928 16.1786 8.50636C16.1786 10.4034 14.5896 11.9467 12.6364 11.9467C10.6831 11.9467 9.0941 10.4034 9.0941 8.50636C9.0941 6.60928 10.6831 5.06597 12.6364 5.06597Z" fill="white"/>
<path d="M17.4092 4.82742C18.2363 4.82742 18.9092 4.17386 18.9092 3.37056C18.9092 2.56726 18.2363 1.9137 17.4092 1.9137C16.5821 1.9137 15.9092 2.56726 15.9092 3.37056C15.9092 4.17386 16.5821 4.82742 17.4092 4.82742ZM17.4092 2.88494C17.6848 2.88494 17.9092 3.10284 17.9092 3.37056C17.9092 3.63828 17.6848 3.85618 17.4092 3.85618C17.1335 3.85618 16.9092 3.63828 16.9092 3.37056C16.9092 3.10284 17.1335 2.88494 17.4092 2.88494Z" fill="white"/>
</g>
<defs>
<filter id="filter0_d" x="0" y="0.118408" width="25.2727" height="24.776" filterUnits="userSpaceOnUse" color-interpolation-filters="sRGB">
<feFlood flood-opacity="0" result="BackgroundImageFix"/>
<feColorMatrix in="SourceAlpha" type="matrix" values="0 0 0 0 0 0 0 0 0 0 0 0 0 0 0 0 0 0 127 0"/>
<feOffset dy="4"/>
<feGaussianBlur stdDeviation="2"/>
<feColorMatrix type="matrix" values="0 0 0 0 0 0 0 0 0 0 0 0 0 0 0 0 0 0 0.25 0"/>
<feBlend mode="normal" in2="BackgroundImageFix" result="effect1_dropShadow"/>
<feBlend mode="normal" in="SourceGraphic" in2="effect1_dropShadow" result="shape"/>
</filter>
</defs>
</svg>
