<svg width="26" height="23" viewBox="0 0 26 23" fill="none" xmlns="http://www.w3.org/2000/svg">
<g filter="url(#filter0_d)">
<path d="M21.2727 2.62973C20.1862 2.67836 20.2099 2.67439 20.0871 2.68438L20.7306 0.899553C20.7306 0.899553 18.722 1.61719 18.2128 1.74557C16.8755 0.578169 14.8877 0.526589 13.4666 1.37491C12.3028 2.06977 11.6782 3.26302 11.8865 4.65773C9.62161 4.35248 7.7133 3.30974 6.20666 1.55192L5.73014 0.996057L5.37407 1.63115C4.92404 2.43364 4.7746 3.35121 4.95317 4.21476C5.02644 4.56904 5.15097 4.90693 5.32347 5.22332L4.91469 5.06948L4.86619 5.73285C4.81704 6.40672 5.04805 7.19335 5.48424 7.83688C5.60706 8.01812 5.7652 8.21714 5.96563 8.41348L5.75439 8.382L6.01215 9.14213C6.35096 10.1408 7.05467 10.9135 7.9679 11.3431C7.05585 11.719 6.31907 11.9588 5.10801 12.3457L4 12.6995L5.02341 13.2429C5.41361 13.4502 6.79242 14.1422 8.15477 14.3498C11.1831 14.8111 14.5926 14.4354 16.888 12.4276C18.8213 10.7365 19.4557 8.33093 19.3239 5.82756C19.304 5.44859 19.4109 5.08688 19.6249 4.80927C20.0536 4.25341 21.2701 2.63344 21.2727 2.62973ZM18.8157 4.22052C18.4602 4.68141 18.2822 5.27004 18.3141 5.87774C18.4471 8.40286 17.7397 10.3611 16.2114 11.6978C14.4262 13.2595 11.5467 13.8724 8.31146 13.3795C7.72556 13.2903 7.12003 13.0905 6.61887 12.891C7.63424 12.5517 8.41833 12.2492 9.68461 11.6671L11.4523 10.8545L9.50064 10.7332C8.56579 10.6751 7.78737 10.235 7.30887 9.5206C7.56294 9.50626 7.80792 9.46633 8.05185 9.40029L9.91324 8.89677L8.0363 8.45034C7.12425 8.2334 6.60437 7.70339 6.32882 7.29689C6.14789 7.02978 6.02968 6.75613 5.95878 6.50387C6.14696 6.55289 6.36638 6.58783 6.72021 6.62187L8.45747 6.78877L7.08102 5.74591C6.08924 4.9946 5.6918 3.86586 5.98316 2.78075C9.07842 5.89886 12.7127 5.66451 13.0785 5.74693C12.998 4.98731 12.9958 4.98552 12.9748 4.9132C12.5063 3.30475 13.533 2.48804 13.9961 2.21158C14.9633 1.63422 16.4987 1.54718 17.5622 2.49841C17.7919 2.7037 18.1025 2.78447 18.3932 2.71433C18.6541 2.65136 18.8682 2.58467 19.0779 2.5121L18.6414 3.72264L19.1986 3.72302C19.0935 3.85997 18.9673 4.02392 18.8157 4.22052Z" fill="white"/>
</g>
<defs>
<filter id="filter0_d" x="0" y="0.796021" width="25.2727" height="21.7304" filterUnits="userSpaceOnUse" color-interpolation-filters="sRGB">
<feFlood flood-opacity="0" result="BackgroundImageFix"/>
<feColorMatrix in="SourceAlpha" type="matrix" values="0 0 0 0 0 0 0 0 0 0 0 0 0 0 0 0 0 0 127 0"/>
<feOffset dy="4"/>
<feGaussianBlur stdDeviation="2"/>
<feColorMatrix type="matrix" values="0 0 0 0 0 0 0 0 0 0 0 0 0 0 0 0 0 0 0.25 0"/>
<feBlend mode="normal" in2="BackgroundImageFix" result="effect1_dropShadow"/>
<feBlend mode="normal" in="SourceGraphic" in2="effect1_dropShadow" result="shape"/>
</filter>
</defs>
</svg>
